<?xml version="1.0" standalone="no"?>
<!DOCTYPE svg PUBLIC "-//W3C//DTD SVG 20010904//EN"
 "http://www.w3.org/TR/2001/REC-SVG-20010904/DTD/svg10.dtd">
<svg version="1.0" xmlns="http://www.w3.org/2000/svg"
 width="626.000000pt" height="626.000000pt" viewBox="0 0 626.000000 626.000000"
 preserveAspectRatio="xMidYMid meet">

<g transform="translate(0.000000,626.000000) scale(0.100000,-0.100000)"
fill="#000000" stroke="none">
<path d="M870 6242 c-54 -30 -71 -61 -81 -148 -5 -47 -5 -312 1 -649 10 -592
23 -1409 40 -2465 6 -338 14 -1029 20 -1535 14 -1286 13 -1261 36 -1315 31
-72 42 -87 80 -111 l37 -22 371 12 c505 15 1920 55 2391 67 137 3 237 10 265
19 25 7 72 16 105 20 113 13 310 56 420 92 428 139 723 400 849 752 52 144 87
379 67 444 -5 18 -15 284 -21 592 -6 308 -15 668 -20 800 -16 406 -39 1025
-50 1350 -6 171 -15 429 -21 575 -5 146 -13 519 -17 830 -8 541 -9 567 -28
605 -11 21 -33 48 -48 59 -27 20 -34 21 -1014 18 -543 -2 -1237 2 -1542 7
-305 6 -836 13 -1180 17 -607 6 -626 5 -660 -14z m1830 -328 c630 -9 1408 -14
1730 -12 l585 3 2 -275 c3 -393 30 -1279 73 -2400 22 -575 31 -881 37 -1247
l6 -382 -69 19 c-122 35 -262 53 -424 54 -187 1 -256 -12 -299 -56 -47 -49
-49 -81 -7 -221 49 -169 59 -240 54 -381 -5 -102 -10 -134 -36 -202 -81 -221
-231 -334 -497 -378 -240 -39 -355 -47 -850 -56 -502 -10 -924 -21 -1498 -40
-170 -6 -312 -8 -316 -6 -4 3 -11 344 -14 758 -8 875 -22 1910 -37 2698 -15
857 -19 1092 -25 1545 -3 231 -8 459 -11 508 l-5 87 228 0 c125 0 743 -7 1373
-16z m2232 -4594 c97 -21 213 -63 213 -77 -3 -57 -48 -199 -90 -281 -58 -115
-194 -255 -317 -326 -51 -30 -130 -67 -135 -63 -2 2 12 37 31 78 76 168 103
381 71 574 -23 139 -27 129 59 122 41 -4 117 -16 168 -27z"/>
<path d="M1855 4963 c-147 -38 -161 -300 -18 -359 73 -31 181 -10 222 42 47
60 52 182 10 250 -36 59 -130 88 -214 67z"/>
<path d="M2568 4954 c-24 -10 -48 -32 -68 -62 -26 -39 -30 -55 -30 -110 0 -83
31 -142 93 -175 l42 -22 818 -3 c840 -3 907 0 956 36 61 45 88 123 72 208 -11
57 -36 92 -87 121 l-39 23 -860 -1 c-752 0 -865 -2 -897 -15z"/>
<path d="M1855 4106 c-87 -33 -134 -126 -114 -231 11 -61 33 -93 85 -122 43
-25 114 -30 161 -12 97 36 142 169 94 276 -36 79 -140 120 -226 89z"/>
<path d="M2598 4110 c-44 -13 -87 -49 -108 -90 -24 -47 -27 -148 -6 -188 19
-36 65 -78 99 -91 19 -8 304 -11 885 -11 966 0 897 -6 956 78 25 36 29 50 29
112 0 62 -4 76 -29 113 -16 22 -45 50 -64 62 -34 20 -48 20 -885 22 -467 1
-862 -2 -877 -7z"/>
<path d="M1831 3330 c-43 -10 -80 -38 -109 -81 -21 -30 -23 -43 -20 -114 3
-71 6 -84 33 -117 84 -106 259 -84 311 39 20 46 17 130 -5 180 -33 72 -126
114 -210 93z"/>
<path d="M2510 3331 c-95 -29 -133 -82 -134 -186 -1 -82 16 -120 71 -162 l36
-28 911 -3 c1012 -3 968 -6 1020 63 15 19 30 56 35 82 22 115 -33 210 -135
233 -47 11 -1768 12 -1804 1z"/>
<path d="M2455 2426 c-49 -22 -86 -70 -96 -121 -22 -119 27 -212 126 -240 57
-17 801 -35 1436 -35 l365 0 50 25 c70 35 98 86 98 176 -1 76 -24 123 -77 161
l-32 23 -670 6 c-368 4 -782 9 -920 13 -203 5 -256 4 -280 -8z"/>
<path d="M1845 2405 c-87 -40 -125 -125 -103 -228 23 -112 141 -175 245 -132
50 21 72 42 94 90 21 44 24 111 9 165 -11 41 -61 94 -103 109 -39 15 -106 13
-142 -4z"/>
</g>
</svg>
